<svg width="40" height="26" fill="none" xmlns="http://www.w3.org/2000/svg"><path d="M14.75 12.882c0 4.31 2.169 8.125 5.469 10.41a12.804 12.804 0 005.424-10.472A12.8 12.8 0 0020.3 2.41c-3.347 2.28-5.55 6.121-5.55 10.472z" fill="#fff"/><path d="M12.984 12.882c0-4.671 2.234-8.83 5.689-11.468A12.772 12.772 0 0012.823 0C5.743 0 0 5.74 0 12.823c0 7.08 5.74 12.823 12.823 12.823 2.072 0 4.027-.495 5.76-1.368-3.404-2.642-5.599-6.767-5.599-11.396z" fill="#fff"/><path d="M27.41 25.472c-6.944 0-12.59-5.65-12.59-12.59C14.82 5.937 20.468.29 27.41.29 34.353.291 40 5.941 40 12.881c0 6.942-5.647 12.59-12.59 12.59zm0-23.417c-5.97 0-10.824 4.857-10.824 10.824 0 5.97 4.856 10.824 10.824 10.824 5.97 0 10.826-4.857 10.826-10.824S33.38 2.055 27.41 2.055z" fill="#fff"/></svg>