<svg width="32" height="32" fill="none" xmlns="http://www.w3.org/2000/svg"><path d="M4 9.333h24a1.333 1.333 0 100-2.667H4a1.333 1.333 0 000 2.667zM12 20H4a1.333 1.333 0 000 2.666h8A1.334 1.334 0 0012 20zm12.667-6.667H4A1.333 1.333 0 104 16h20.667a2 2 0 010 4h-4.12l.4-.387a1.34 1.34 0 00-1.894-1.893l-2.666 2.667a1.332 1.332 0 00-.28.44 1.333 1.333 0 000 1.013c.063.163.158.313.28.44l2.666 2.666a1.333 1.333 0 001.894 0 1.334 1.334 0 000-1.893l-.4-.387h4.12a4.667 4.667 0 000-9.333z" fill="#E3572C"/></svg>