<svg width="32" height="32" fill="none" xmlns="http://www.w3.org/2000/svg"><circle cx="16" cy="16" r="16" fill="#F2F0F2"/><mask id="a" style="mask-type:alpha" maskUnits="userSpaceOnUse" x="0" y="0" width="32" height="32"><circle cx="16" cy="16" r="16" fill="#FCFCFC"/></mask><g mask="url(#a)"><path fill="#D90026" d="M5.2 28.4H27.2V32.4H5.2z"/><path fill="#D90026" d="M5.2 28.4H27.2V32.4H5.2zM.4 20.4H32V24.4H.4z"/><path fill="#D90026" d="M.4 20.4H32V24.4H.4zM.4 12H32V16H.4z"/><path fill="#D90026" d="M.4 12H32V16H.4zM.4 4H32V8H.4z"/><path fill="#D90026" d="M0.4 4H32V8H0.4z"/><path fill="#0052B5" d="M0 0H16.4V16H0z"/><path d="M13.2 13.4L12 14l.4-1.2-.8-.8h1.2l.4-1.2.6 1.2h1l-.8.8.4 1.2-1.2-.6zM7.6 13.4l-1.2.6.4-1.2L6 12h1.2l.4-1.2.6 1.2h1l-.8.8.4 1.2-1.2-.6zM2 13.4L.8 14l.4-1.2-.8-.8h1.2l.4-1.2.6 1.2h1l-.8.8.4 1.2-1.2-.6zM13.2 9l-1.2.6.4-1.2-.8-.8h1.2l.4-1.2.6 1.2h1l-.8.8.4 1.2-1.2-.6zM13.2 4.6l-1.2.6.4-1.2-.8-.8h1.2l.4-1.2.6 1.2h1L14 4l.4 1.2-1.2-.6zM13.2.2L12 .8l.4-1.2-.8-.8h1.2l.4-1.2.6 1.2h1l-.8.8.4 1.2-1.2-.6zM7.6 4.6l-1.2.6.4-1.2-.8-.8h1.2L7.6 2l.6 1.2h1l-.8.8.4 1.2-1.2-.6zM7.6 9l-1.2.6.4-1.2-.8-.8h1.2l.4-1.2.6 1.2h1l-.8.8.4 1.2L7.6 9zM2 9l-1.2.6.4-1.2-.8-.8h1.2L2 6.4l.6 1.2h1l-.8.8.4 1.2L2 9z" fill="#EFEFEF"/></g></svg>